HIERARCHY
ROOT Hips
{
	OFFSET 0.053599 88.859886 3.107447
	CHANNELS 6 Xposition Yposition Zposition Zrotation Yrotation Xrotation 
	JOINT Spine
	{
		OFFSET -0.000000 8.814246 -2.080107
		CHANNELS 3 Zrotation Yrotation Xrotation
		JOINT Spine1
		{
			OFFSET 0.000000 8.844141 0.000000
			CHANNELS 3 Zrotation Yrotation Xrotation
			JOINT Spine2
			{
				OFFSET -0.000000 11.682268 0.000000
				CHANNELS 3 Zrotation Yrotation Xrotation
				JOINT Spine3
				{
					OFFSET 0.000000 11.746700 0.000000
					CHANNELS 3 Zrotation Yrotation Xrotation
					JOINT Neck
					{
						OFFSET -0.000000 17.658264 -0.000000
						CHANNELS 3 Zrotation Yrotation Xrotation
						JOINT Neck1
						{
							OFFSET -0.000000 5.101515 -0.000000
							CHANNELS 3 Zrotation Yrotation Xrotation
							JOINT Head
							{
								OFFSET 0.000000 5.101515 0.000000
								CHANNELS 3 Zrotation Yrotation Xrotation
								JOINT HeadEnd
								{
									OFFSET 0.000000 11.655085 0.000000
									CHANNELS 3 Zrotation Yrotation Xrotation
									End Site
									{
										OFFSET 0.000000 0.000000 0.000000
									}
								}
							}
						}
					}
					JOINT RightShoulder
					{
						OFFSET -2.625389 11.175210 0.000000
						CHANNELS 3 Zrotation Yrotation Xrotation
						JOINT RightArm
						{
							OFFSET -0.000000 10.434715 -0.000000
							CHANNELS 3 Zrotation Yrotation Xrotation
							JOINT RightForeArm
							{
								OFFSET -0.000000 29.628420 0.000000
								CHANNELS 3 Zrotation Yrotation Xrotation
								JOINT RightHand
								{
									OFFSET -0.000000 22.857611 0.000000
									CHANNELS 3 Zrotation Yrotation Xrotation
									JOINT RightHandThumb1
									{
										OFFSET -2.867323 3.959563 2.944291
										CHANNELS 3 Zrotation Yrotation Xrotation
										JOINT RightHandThumb2
										{
											OFFSET 0.000000 3.350399 0.000000
											CHANNELS 3 Zrotation Yrotation Xrotation
											JOINT RightHandThumb3
											{
												OFFSET 0.000000 3.756509 -0.000000
												CHANNELS 3 Zrotation Yrotation Xrotation
												JOINT RightHandThumb4
												{
													OFFSET 0.000000 3.147345 0.000000
													CHANNELS 3 Zrotation Yrotation Xrotation
													End Site
													{
														OFFSET 0.000000 0.000000 0.000000
													}
												}
											}
										}
									}
									JOINT RightHandIndex1
									{
										OFFSET -0.086752 10.030893 2.345280
										CHANNELS 3 Zrotation Yrotation Xrotation
										JOINT RightHandIndex2
										{
											OFFSET -0.000000 4.061090 0.000000
											CHANNELS 3 Zrotation Yrotation Xrotation
											JOINT RightHandIndex3
											{
												OFFSET -0.000000 3.248873 0.000000
												CHANNELS 3 Zrotation Yrotation Xrotation
												JOINT RightHandIndex4
												{
													OFFSET 0.000000 2.639709 -0.000000
													CHANNELS 3 Zrotation Yrotation Xrotation
													End Site
													{
														OFFSET 0.000000 0.000000 0.000000
													}
												}
											}
										}
									}
									JOINT RightHandMiddle1
									{
										OFFSET 0.104102 9.502952 0.006768
										CHANNELS 3 Zrotation Yrotation Xrotation
										JOINT RightHandMiddle2
										{
											OFFSET 0.000000 4.568727 0.000000
											CHANNELS 3 Zrotation Yrotation Xrotation
											JOINT RightHandMiddle3
											{
												OFFSET 0.000000 3.654981 -0.000000
												CHANNELS 3 Zrotation Yrotation Xrotation
												JOINT RightHandMiddle4
												{
													OFFSET -0.000000 2.741236 -0.000000
													CHANNELS 3 Zrotation Yrotation Xrotation
													End Site
													{
														OFFSET 0.000000 0.000000 0.000000
													}
												}
											}
										}
									}
									JOINT RightHandRing1
									{
										OFFSET 0.086752 8.921708 -2.267442
										CHANNELS 3 Zrotation Yrotation Xrotation
										JOINT RightHandRing2
										{
											OFFSET -0.000000 4.061090 0.000000
											CHANNELS 3 Zrotation Yrotation Xrotation
											JOINT RightHandRing3
											{
												OFFSET 0.000000 3.654981 -0.000000
												CHANNELS 3 Zrotation Yrotation Xrotation
												JOINT RightHandRing4
												{
													OFFSET 0.000000 2.741236 -0.000000
													CHANNELS 3 Zrotation Yrotation Xrotation
													End Site
													{
														OFFSET 0.000000 0.000000 0.000000
													}
												}
											}
										}
									}
									JOINT RightHandPinky1
									{
										OFFSET -0.173504 7.976997 -4.467199
										CHANNELS 3 Zrotation Yrotation Xrotation
										JOINT RightHandPinky2
										{
											OFFSET 0.000000 3.350399 -0.000000
											CHANNELS 3 Zrotation Yrotation Xrotation
											JOINT RightHandPinky3
											{
												OFFSET -0.000000 2.842763 0.000000
												CHANNELS 3 Zrotation Yrotation Xrotation
												JOINT RightHandPinky4
												{
													OFFSET -0.000000 2.639709 0.000000
													CHANNELS 3 Zrotation Yrotation Xrotation
													End Site
													{
														OFFSET 0.000000 0.000000 0.000000
													}
												}
											}
										}
									}
									JOINT RightForeArmEnd
									{
										OFFSET 0.000000 0.000000 0.000000
										CHANNELS 3 Zrotation Yrotation Xrotation
										End Site
										{
											OFFSET 0.000000 0.000000 0.000000
										}
									}
								}
								JOINT RightArmEnd
								{
									OFFSET 0.000000 0.000000 0.000000
									CHANNELS 3 Zrotation Yrotation Xrotation
									End Site
									{
										OFFSET 0.000000 0.000000 0.000000
									}
								}
							}
						}
					}
					JOINT LeftShoulder
					{
						OFFSET 2.625389 11.175210 0.000000
						CHANNELS 3 Zrotation Yrotation Xrotation
						JOINT LeftArm
						{
							OFFSET 0.000000 10.813635 -0.000000
							CHANNELS 3 Zrotation Yrotation Xrotation
							JOINT LeftForeArm
							{
								OFFSET 0.000000 28.724781 0.000000
								CHANNELS 3 Zrotation Yrotation Xrotation
								JOINT LeftHand
								{
									OFFSET 0.644384 25.716167 -0.328871
									CHANNELS 3 Zrotation Yrotation Xrotation
									JOINT LeftHandThumb1
									{
										OFFSET 2.867323 3.959563 2.944291
										CHANNELS 3 Zrotation Yrotation Xrotation
										JOINT LeftHandThumb2
										{
											OFFSET 0.000000 3.350399 0.000000
											CHANNELS 3 Zrotation Yrotation Xrotation
											JOINT LeftHandThumb3
											{
												OFFSET -0.000000 3.756509 0.000000
												CHANNELS 3 Zrotation Yrotation Xrotation
												JOINT LeftHandThumb4
												{
													OFFSET -0.000000 3.100000 0.000000
													CHANNELS 3 Zrotation Yrotation Xrotation
													End Site
													{
														OFFSET 0.000000 0.000000 0.000000
													}
												}
											}
										}
									}
									JOINT LeftHandIndex1
									{
										OFFSET 0.086752 10.030893 2.345280
										CHANNELS 3 Zrotation Yrotation Xrotation
										JOINT LeftHandIndex2
										{
											OFFSET -0.000000 4.061090 -0.000000
											CHANNELS 3 Zrotation Yrotation Xrotation
											JOINT LeftHandIndex3
											{
												OFFSET 0.000000 3.248873 -0.000000
												CHANNELS 3 Zrotation Yrotation Xrotation
												JOINT LeftHandIndex4
												{
													OFFSET 0.000000 2.639709 -0.000000
													CHANNELS 3 Zrotation Yrotation Xrotation
													End Site
													{
														OFFSET 0.000000 0.000000 0.000000
													}
												}
											}
										}
									}
									JOINT LeftHandMiddle1
									{
										OFFSET -0.104102 9.502952 0.006768
										CHANNELS 3 Zrotation Yrotation Xrotation
										JOINT LeftHandMiddle2
										{
											OFFSET -0.000000 4.568727 -0.000000
											CHANNELS 3 Zrotation Yrotation Xrotation
											JOINT LeftHandMiddle3
											{
												OFFSET 0.000000 3.654981 0.000000
												CHANNELS 3 Zrotation Yrotation Xrotation
												JOINT LeftHandMiddle4
												{
													OFFSET 0.000000 2.741236 -0.000000
													CHANNELS 3 Zrotation Yrotation Xrotation
													End Site
													{
														OFFSET 0.000000 0.000000 0.000000
													}
												}
											}
										}
									}
									JOINT LeftHandRing1
									{
										OFFSET -0.086752 8.921708 -2.267442
										CHANNELS 3 Zrotation Yrotation Xrotation
										JOINT LeftHandRing2
										{
											OFFSET 0.000000 4.061090 0.000000
											CHANNELS 3 Zrotation Yrotation Xrotation
											JOINT LeftHandRing3
											{
												OFFSET 0.000000 3.654981 0.000000
												CHANNELS 3 Zrotation Yrotation Xrotation
												JOINT LeftHandRing4
												{
													OFFSET 0.000000 2.741236 0.000000
													CHANNELS 3 Zrotation Yrotation Xrotation
													End Site
													{
														OFFSET 0.000000 0.000000 0.000000
													}
												}
											}
										}
									}
									JOINT LeftHandPinky1
									{
										OFFSET 0.173504 7.976997 -4.467199
										CHANNELS 3 Zrotation Yrotation Xrotation
										JOINT LeftHandPinky2
										{
											OFFSET -0.000000 3.350399 -0.000000
											CHANNELS 3 Zrotation Yrotation Xrotation
											JOINT LeftHandPinky3
											{
												OFFSET 0.000000 2.842763 0.000000
												CHANNELS 3 Zrotation Yrotation Xrotation
												JOINT LeftHandPinky4
												{
													OFFSET -0.000000 2.639709 -0.000000
													CHANNELS 3 Zrotation Yrotation Xrotation
													End Site
													{
														OFFSET 0.000000 0.000000 0.000000
													}
												}
											}
										}
									}
									JOINT LeftForeArmEnd
									{
										OFFSET 0.000000 0.000000 0.000000
										CHANNELS 3 Zrotation Yrotation Xrotation
										End Site
										{
											OFFSET 0.000000 0.000000 0.000000
										}
									}
								}
								JOINT LeftArmEnd
								{
									OFFSET 0.000000 0.000000 0.000000
									CHANNELS 3 Zrotation Yrotation Xrotation
									End Site
									{
										OFFSET 0.000000 0.000000 0.000000
									}
								}
							}
						}
					}
				}
			}
		}
	}
	JOINT RightUpLeg
	{
		OFFSET -11.289943 0.000000 0.000000
		CHANNELS 3 Zrotation Yrotation Xrotation
		JOINT RightLeg
		{
			OFFSET 0.000000 -38.200325 0.000000
			CHANNELS 3 Zrotation Yrotation Xrotation
			JOINT RightFoot
			{
				OFFSET -0.000000 -39.900856 -0.000000
				CHANNELS 3 Zrotation Yrotation Xrotation
				JOINT RightToeBase
				{
					OFFSET 0.000000 0.000000 15.261641
					CHANNELS 3 Zrotation Yrotation Xrotation
					JOINT RightToeBaseEnd
					{
						OFFSET 0.000000 0.000000 7.370709
						CHANNELS 3 Zrotation Yrotation Xrotation
						End Site
						{
							OFFSET 0.000000 0.000000 0.000000
						}
					}
				}
				JOINT RightLegEnd
				{
					OFFSET 0.000000 0.000000 0.000000
					CHANNELS 3 Zrotation Yrotation Xrotation
					End Site
					{
						OFFSET 0.000000 0.000000 0.000000
					}
				}
			}
			JOINT RightUpLegEnd
			{
				OFFSET 0.000000 0.000000 0.000000
				CHANNELS 3 Zrotation Yrotation Xrotation
				End Site
				{
					OFFSET 0.000000 0.000000 0.000000
				}
			}
		}
	}
	JOINT LeftUpLeg
	{
		OFFSET 11.315661 -0.000000 0.000000
		CHANNELS 3 Zrotation Yrotation Xrotation
		JOINT LeftLeg
		{
			OFFSET -0.000000 -38.200325 -0.000000
			CHANNELS 3 Zrotation Yrotation Xrotation
			JOINT LeftFoot
			{
				OFFSET 0.000000 -39.900856 -0.000000
				CHANNELS 3 Zrotation Yrotation Xrotation
				JOINT LeftToeBase
				{
					OFFSET -0.000000 -0.000000 15.261641
					CHANNELS 3 Zrotation Yrotation Xrotation
					JOINT LeftToeBaseEnd
					{
						OFFSET 0.000000 -0.000000 7.539996
						CHANNELS 3 Zrotation Yrotation Xrotation
						End Site
						{
							OFFSET 0.000000 0.000000 0.000000
						}
					}
				}
				JOINT LeftLegEnd
				{
					OFFSET 0.000000 0.000000 0.000000
					CHANNELS 3 Zrotation Yrotation Xrotation
					End Site
					{
						OFFSET 0.000000 0.000000 0.000000
					}
				}
			}
			JOINT LeftUpLegEnd
			{
				OFFSET 0.000000 0.000000 0.000000
				CHANNELS 3 Zrotation Yrotation Xrotation
				End Site
				{
					OFFSET 0.000000 0.000000 0.000000
				}
			}
		}
	}
}
MOTION
Frames: 4
Frame Time: 0.016667
0.053599 88.859886 3.107447 0.490481 0.055862 -6.497332 0.023754 -0.000539 5.886370 -1.012250 0.067046 0.861970 0.478071 -2.416792 3.829567 0.155030 -0.780500 1.929224 2.330515 0.848112 5.016849 0.371683 2.117863 -3.221864 -0.714533 -0.852149 -18.222401 0.000000 0.000000 0.000000 92.418694 -0.394880 9.707912 65.456573 -33.431271 5.091406 -0.130291 12.440493 22.353239 6.882370 13.743960 -6.458578 19.861429 30.097643 62.040974 -8.462701 -12.164348 -20.450144 -6.325801 -8.139122 -14.332924 0.000000 0.000000 0.000000 12.621688 -10.712396 0.231899 8.905269 0.376633 1.323778 8.902945 -0.111869 1.243825 0.000000 0.000000 0.000000 11.194713 -5.446730 -1.239449 7.889823 0.455857 0.481039 7.889222 -0.037052 0.412494 0.000000 0.000000 0.000000 10.912717 2.564455 -1.535874 7.825817 -0.947299 -0.611652 7.824722 0.070320 -0.477096 0.000000 0.000000 0.000000 9.631022 11.185607 -2.805182 7.161172 -1.900893 -1.652070 7.157181 0.085565 -1.400512 0.000000 0.000000 0.000000 0.000000 0.000000 0.000000 0.000000 0.000000 0.000000 -90.370071 0.051974 5.208683 -71.842018 19.306828 -7.574249 -0.664994 -8.642401 40.885647 -0.139946 -25.486511 -15.477552 -20.250540 -29.996990 61.691063 8.807010 12.918287 -21.553112 6.618044 8.635277 -15.110494 0.000000 0.000000 0.000000 -16.168392 -5.636370 -1.918335 -11.569428 0.324957 -1.715407 -11.569072 -0.164917 -1.615128 0.000000 0.000000 0.000000 -15.643335 -0.758781 -1.694552 -11.169063 0.440303 -0.678956 -11.168735 -0.058746 -0.582722 0.000000 0.000000 0.000000 -18.003109 7.607869 -1.025503 -12.703986 -0.874371 0.992852 -12.702737 0.099213 0.772902 0.000000 0.000000 0.000000 -18.852142 16.262062 -0.245862 -13.102126 -1.657223 2.980032 -13.096694 0.281077 2.526406 0.000000 0.000000 0.000000 0.000000 0.000000 0.000000 0.000000 0.000000 0.000000 -1.045058 -10.518975 11.869204 -0.078405 -0.635030 3.758801 -2.197730 -7.901679 18.681496 -0.890004 0.828132 -18.870453 0.000000 0.000000 0.000000 0.000000 0.000000 0.000000 0.000000 0.000000 0.000000 -1.784023 -6.543907 7.474547 0.053202 0.398207 7.545935 3.843466 -1.785134 17.966772 0.194973 -0.390531 -20.817129 0.000000 0.000000 0.000000 0.000000 0.000000 0.000000 0.000000 0.000000 0.000000 
0.110898 88.909340 2.911851 -0.281489 -0.306279 -7.322877 1.304282 -0.186833 6.652829 -0.975458 0.123222 2.669056 0.766320 -1.621069 1.571295 -0.891233 -0.165941 3.086972 1.342112 2.285481 3.117175 0.347506 2.967257 -3.805953 -1.048515 -0.578558 -18.461349 0.000000 0.000000 0.000000 92.970978 -0.438038 9.591568 64.991493 -32.136333 3.983226 -0.105610 13.093343 23.260426 6.846066 13.139951 -6.866311 19.881176 30.089714 62.067863 -8.445170 -12.091920 -20.455379 -6.301497 -8.104988 -14.293717 0.000000 0.000000 0.000000 11.946421 -10.734098 -0.272840 8.908346 0.333762 1.323393 8.698044 -0.107043 1.257841 0.000000 0.000000 0.000000 10.799434 -5.340865 -1.075055 7.573711 0.422787 0.515646 7.943470 -0.052733 0.441326 0.000000 0.000000 0.000000 10.268528 2.583312 -0.828436 7.387987 -0.889358 -0.849393 7.429132 0.067040 -0.623991 0.000000 0.000000 0.000000 9.573085 11.051484 -1.796675 7.097124 -1.649288 -2.419853 6.683009 0.277907 -2.045331 0.000000 0.000000 0.000000 0.000000 0.000000 0.000000 0.000000 0.000000 0.000000 -89.910309 0.124030 6.017289 -71.698524 19.549196 -6.579362 -1.218872 -9.090375 40.418041 1.887105 -23.314627 -16.105139 -20.253498 -29.962891 61.601009 8.899090 12.960889 -21.706182 6.660983 8.674428 -15.171053 0.000000 0.000000 0.000000 -17.197012 -5.497638 -0.131928 -10.986747 0.295785 -1.381566 -11.108994 -0.167752 -1.274360 0.000000 0.000000 0.000000 -16.537901 -0.509110 -0.918398 -10.877481 0.409430 -0.585269 -10.794033 -0.066171 -0.469161 0.000000 0.000000 0.000000 -18.708488 7.535205 -0.742641 -12.387156 -0.869337 0.843413 -12.366679 0.083468 0.654538 0.000000 0.000000 0.000000 -19.987158 15.942033 -1.156954 -12.955473 -1.550150 2.632408 -12.811798 0.342658 2.240081 0.000000 0.000000 0.000000 0.000000 0.000000 0.000000 0.000000 0.000000 0.000000 0.150840 -9.157956 11.035048 -0.048411 -0.640072 6.165437 -2.891550 -9.081627 17.709959 -0.793779 0.756647 -19.035875 0.000000 0.000000 0.000000 0.000000 0.000000 0.000000 0.000000 0.000000 0.000000 -1.539074 -6.381376 7.183702 0.056936 0.362488 8.520042 3.735847 -0.595509 16.988306 0.384926 -0.472514 -20.517607 0.000000 0.000000 0.000000 0.000000 0.000000 0.000000 0.000000 0.000000 0.000000 
0.113291 88.893188 2.901906 -0.299400 -0.370327 -7.400040 1.298743 -0.175809 6.694666 -0.917957 0.111181 2.642731 0.760117 -1.589689 1.677608 -0.870534 -0.140055 3.129365 1.283579 2.206919 3.057649 0.340408 2.894863 -3.797573 -1.062471 -0.613555 -18.426722 0.000000 0.000000 0.000000 92.858131 -0.437985 9.527273 64.970284 -32.338230 4.051355 -0.058473 13.158572 23.319216 6.689024 12.763849 -6.838356 19.865999 30.091291 62.070644 -8.445086 -12.076228 -20.434454 -6.300788 -8.091165 -14.279624 0.000000 0.000000 0.000000 11.918734 -10.726254 -0.302138 8.921617 0.338502 1.300440 8.725634 -0.100654 1.234305 0.000000 0.000000 0.000000 10.810373 -5.330835 -1.064760 7.601709 0.423498 0.506577 7.973083 -0.051091 0.434191 0.000000 0.000000 0.000000 10.295921 2.571705 -0.782632 7.451638 -0.890608 -0.838108 7.498557 0.063707 -0.612844 0.000000 0.000000 0.000000 9.551263 11.035038 -1.682126 7.100019 -1.654755 -2.399923 6.707364 0.270833 -2.021061 0.000000 0.000000 0.000000 0.000000 0.000000 0.000000 0.000000 0.000000 0.000000 -89.856094 0.124411 6.046846 -71.864693 19.673296 -6.559836 -1.213283 -9.127533 40.473450 2.039479 -23.091906 -16.105137 -20.241280 -29.970100 61.616390 8.876371 12.930725 -21.663858 6.645159 8.652636 -15.136603 0.000000 0.000000 0.000000 -17.081221 -5.544737 -0.201457 -11.044633 0.298631 -1.357551 -11.148996 -0.162648 -1.255663 0.000000 0.000000 0.000000 -16.411961 -0.540798 -0.968481 -10.942410 0.410406 -0.579835 -10.855559 -0.065718 -0.464914 0.000000 0.000000 0.000000 -18.656521 7.524051 -0.803114 -12.463850 -0.870467 0.839730 -12.429310 0.082315 0.650475 0.000000 0.000000 0.000000 -19.985548 15.936090 -1.229022 -12.991201 -1.555374 2.603495 -12.825548 0.337717 2.229095 0.000000 0.000000 0.000000 0.000000 0.000000 0.000000 0.000000 0.000000 0.000000 0.149566 -9.094945 11.134194 -0.048718 -0.642346 6.101763 -2.839593 -9.102736 17.743412 -0.796413 0.756992 -19.037487 0.000000 0.000000 0.000000 0.000000 0.000000 0.000000 0.000000 0.000000 0.000000 -1.515167 -6.324886 7.177884 0.055492 0.352774 8.601627 3.733073 -0.576280 16.994787 0.368547 -0.478100 -20.545317 0.000000 0.000000 0.000000 0.000000 0.000000 0.000000 0.000000 0.000000 0.000000 
0.119480 88.881424 2.908190 -0.311201 -0.426153 -7.497080 1.302134 -0.167499 6.702315 -0.906245 0.112012 2.626405 0.773437 -1.575462 1.761828 -0.859950 -0.112749 3.189962 1.241822 2.163985 3.027666 0.356583 2.861034 -3.772620 -1.062349 -0.630182 -18.411842 0.000000 0.000000 0.000000 92.759766 -0.447069 9.482965 65.043854 -32.217155 3.955963 -0.046271 13.231867 23.499989 6.742043 12.427114 -6.766248 19.875904 30.089891 62.056309 -8.456391 -12.108073 -20.477211 -6.310123 -8.106767 -14.308846 0.000000 0.000000 0.000000 12.002400 -10.750120 -0.316993 9.027552 0.343677 1.276287 8.840152 -0.095135 1.210611 0.000000 0.000000 0.000000 10.905096 -5.343011 -1.052773 7.705483 0.425484 0.497127 8.076986 -0.048846 0.425829 0.000000 0.000000 0.000000 10.369961 2.565495 -0.721106 7.557314 -0.892983 -0.828836 7.608282 0.061319 -0.603608 0.000000 0.000000 0.000000 9.559100 11.043798 -1.546399 7.147019 -1.658772 -2.389752 6.769244 0.267884 -2.011618 0.000000 0.000000 0.000000 0.000000 0.000000 0.000000 0.000000 0.000000 0.000000 -89.816658 0.128381 6.058410 -72.021156 19.681852 -6.560559 -1.181200 -9.174755 40.512104 2.032115 -22.895443 -15.948798 -20.246511 -29.972044 61.615345 8.871515 12.924150 -21.673159 6.643186 8.653905 -15.136024 0.000000 0.000000 0.000000 -17.071081 -5.572112 -0.175405 -11.078153 0.301482 -1.337041 -11.162547 -0.158822 -1.238865 0.000000 0.000000 0.000000 -16.379906 -0.554870 -0.943427 -10.983944 0.411319 -0.572937 -10.901254 -0.065133 -0.458922 0.000000 0.000000 0.000000 -18.692616 7.522914 -0.761541 -12.515669 -0.871961 0.838062 -12.482368 0.081132 0.647263 0.000000 0.000000 0.000000 -20.074184 15.932137 -1.209527 -13.035928 -1.557572 2.597614 -12.847342 0.338911 2.231870 0.000000 0.000000 0.000000 0.000000 0.000000 0.000000 0.000000 0.000000 0.000000 0.134004 -9.042464 11.245098 -0.048826 -0.640740 6.096390 -2.791246 -9.115499 17.760447 -0.799361 0.757667 -19.037127 0.000000 0.000000 0.000000 0.000000 0.000000 0.000000 0.000000 0.000000 0.000000 -1.501965 -6.281259 7.185312 0.054752 0.349353 8.708168 3.739979 -0.558058 16.981358 0.360209 -0.482552 -20.552046 0.000000 0.000000 0.000000 0.000000 0.000000 0.000000 0.000000 0.000000 0.000000 
